<svg id="visual" viewBox="0 0 900 600" width="900" height="600" xmlns="http://www.w3.org/2000/svg" xmlns:xlink="http://www.w3.org/1999/xlink" version="1.1"><g stroke-width="1" stroke-linejoin="bevel"><path d="M455 284.7L417.8 306.7L433 344.3Z" fill="#001b3a" stroke="#001b3a"></path><path d="M433 344.3L498.3 366.8L455 284.7Z" fill="#002471" stroke="#002471"></path><path d="M411 223.2L387.8 305.3L417.8 306.7Z" fill="#001f4d" stroke="#001f4d"></path><path d="M417.8 306.7L387.8 305.3L433 344.3Z" fill="#002471" stroke="#002471"></path><path d="M433 344.3L423.8 406.8L440 357.8Z" fill="#002368" stroke="#002368"></path><path d="M440 357.8L498.3 366.8L433 344.3Z" fill="#002471" stroke="#002471"></path><path d="M528.5 294.3L491.3 252.2L455 284.7Z" fill="#002368" stroke="#002368"></path><path d="M455 284.7L411 223.2L417.8 306.7Z" fill="#00225f" stroke="#00225f"></path><path d="M498.3 366.8L528.5 294.3L455 284.7Z" fill="#00101c" stroke="#00101c"></path><path d="M329.5 346.3L423.8 406.8L433 344.3Z" fill="#002471" stroke="#002471"></path><path d="M440 357.8L423.8 406.8L498.3 366.8Z" fill="#001d44" stroke="#001d44"></path><path d="M498.3 366.8L543.3 318.3L528.5 294.3Z" fill="#002368" stroke="#002368"></path><path d="M491.3 252.2L411 223.2L455 284.7Z" fill="#002471" stroke="#002471"></path><path d="M543.3 318.3L543.3 270.7L528.5 294.3Z" fill="#002368" stroke="#002368"></path><path d="M528.5 294.3L543.3 270.7L491.3 252.2Z" fill="#001b3a" stroke="#001b3a"></path><path d="M415 138.6L378.8 201.6L411 223.2Z" fill="#001426" stroke="#001426"></path><path d="M509.3 414.4L554.5 346.8L498.3 366.8Z" fill="#002368" stroke="#002368"></path><path d="M498.3 366.8L554.5 346.8L543.3 318.3Z" fill="#001426" stroke="#001426"></path><path d="M543.3 318.3L585.5 276.7L543.3 270.7Z" fill="#00225f" stroke="#00225f"></path><path d="M423.8 406.8L509.3 414.4L498.3 366.8Z" fill="#002471" stroke="#002471"></path><path d="M360.8 220.2L337.5 278.7L387.8 305.3Z" fill="#001d44" stroke="#001d44"></path><path d="M387.8 305.3L329.5 346.3L433 344.3Z" fill="#08247a" stroke="#08247a"></path><path d="M337.5 278.7L329.5 346.3L387.8 305.3Z" fill="#001426" stroke="#001426"></path><path d="M384.8 460.4L431 443.4L423.8 406.8Z" fill="#00225f" stroke="#00225f"></path><path d="M423.8 406.8L431 443.4L509.3 414.4Z" fill="#001b3a" stroke="#001b3a"></path><path d="M411 223.2L360.8 220.2L387.8 305.3Z" fill="#08247a" stroke="#08247a"></path><path d="M284.3 276.7L321.5 352.8L329.5 346.3Z" fill="#002368" stroke="#002368"></path><path d="M329.5 346.3L346.5 438.4L423.8 406.8Z" fill="#08247a" stroke="#08247a"></path><path d="M472.3 144.6L411 223.2L491.3 252.2Z" fill="#001426" stroke="#001426"></path><path d="M411 223.2L378.8 201.6L360.8 220.2Z" fill="#001f4d" stroke="#001f4d"></path><path d="M554.5 346.8L585.5 276.7L543.3 318.3Z" fill="#001830" stroke="#001830"></path><path d="M543.3 270.7L557.5 203.2L491.3 252.2Z" fill="#001d44" stroke="#001d44"></path><path d="M353.5 189.6L321.5 224.2L360.8 220.2Z" fill="#002471" stroke="#002471"></path><path d="M360.8 220.2L321.5 224.2L337.5 278.7Z" fill="#002156" stroke="#002156"></path><path d="M337.5 278.7L284.3 276.7L329.5 346.3Z" fill="#002156" stroke="#002156"></path><path d="M602.8 241.2L557.5 203.2L543.3 270.7Z" fill="#001d44" stroke="#001d44"></path><path d="M346.5 438.4L384.8 460.4L423.8 406.8Z" fill="#001d44" stroke="#001d44"></path><path d="M415 138.6L353.5 189.6L378.8 201.6Z" fill="#002471" stroke="#002471"></path><path d="M378.8 201.6L353.5 189.6L360.8 220.2Z" fill="#001b3a" stroke="#001b3a"></path><path d="M321.5 352.8L346.5 438.4L329.5 346.3Z" fill="#002368" stroke="#002368"></path><path d="M245.3 352.3L301.3 395.8L321.5 352.8Z" fill="#001d44" stroke="#001d44"></path><path d="M321.5 352.8L301.3 395.8L346.5 438.4Z" fill="#001830" stroke="#001830"></path><path d="M321.5 224.2L284.3 276.7L337.5 278.7Z" fill="#001d44" stroke="#001d44"></path><path d="M615.8 236.7L602.8 241.2L585.5 276.7Z" fill="#001f4d" stroke="#001f4d"></path><path d="M585.5 276.7L602.8 241.2L543.3 270.7Z" fill="#002156" stroke="#002156"></path><path d="M588.8 441.4L587.8 418.8L509.3 414.4Z" fill="#002156" stroke="#002156"></path><path d="M509.3 414.4L587.8 418.8L554.5 346.8Z" fill="#002156" stroke="#002156"></path><path d="M554.5 346.8L648.8 347.3L585.5 276.7Z" fill="#001f4d" stroke="#001f4d"></path><path d="M588.8 441.4L571.5 505.9L578.8 499.9Z" fill="#001d44" stroke="#001d44"></path><path d="M513.3 141.1L472.3 144.6L491.3 252.2Z" fill="#001f4d" stroke="#001f4d"></path><path d="M587.8 418.8L592.5 415.4L554.5 346.8Z" fill="#08247a" stroke="#08247a"></path><path d="M439 134.1L415 138.6L411 223.2Z" fill="#001d44" stroke="#001d44"></path><path d="M472.3 144.6L439 134.1L411 223.2Z" fill="#001b3a" stroke="#001b3a"></path><path d="M648.8 347.3L615.8 236.7L585.5 276.7Z" fill="#00101c" stroke="#00101c"></path><path d="M602.8 241.2L615.8 236.7L557.5 203.2Z" fill="#002368" stroke="#002368"></path><path d="M557.5 203.2L513.3 141.1L491.3 252.2Z" fill="#08247a" stroke="#08247a"></path><path d="M557.5 128.6L513.3 141.1L557.5 203.2Z" fill="#001d44" stroke="#001d44"></path><path d="M472.3 144.6L423.8 89.1L439 134.1Z" fill="#002156" stroke="#002156"></path><path d="M587.8 418.8L588.8 441.4L592.5 415.4Z" fill="#002368" stroke="#002368"></path><path d="M503.3 524.9L509.3 414.4L431 443.4Z" fill="#001d44" stroke="#001d44"></path><path d="M405.8 506.9L431 443.4L384.8 460.4Z" fill="#002156" stroke="#002156"></path><path d="M405.8 506.9L435 504.9L431 443.4Z" fill="#001426" stroke="#001426"></path><path d="M404.8 513.5L405.8 506.9L356.5 538.5Z" fill="#00225f" stroke="#00225f"></path><path d="M405.8 506.9L384.8 460.4L356.5 538.5Z" fill="#08247a" stroke="#08247a"></path><path d="M307.5 484.9L384.8 460.4L346.5 438.4Z" fill="#08247a" stroke="#08247a"></path><path d="M405.8 506.9L404.8 513.5L435 504.9Z" fill="#001f4d" stroke="#001f4d"></path><path d="M681 344.3L648.8 347.3L681 345.8Z" fill="#00225f" stroke="#00225f"></path><path d="M592.5 415.4L648.8 347.3L554.5 346.8Z" fill="#08247a" stroke="#08247a"></path><path d="M284.3 276.7L245.3 352.3L321.5 352.8Z" fill="#00101c" stroke="#00101c"></path><path d="M301.3 395.8L261.3 427.4L346.5 438.4Z" fill="#001426" stroke="#001426"></path><path d="M461 545.5L503.3 524.9L435 504.9Z" fill="#002156" stroke="#002156"></path><path d="M435 504.9L503.3 524.9L431 443.4Z" fill="#00225f" stroke="#00225f"></path><path d="M586.8 130.1L557.5 128.6L557.5 203.2Z" fill="#00101c" stroke="#00101c"></path><path d="M471.3 40.5L423.8 89.1L472.3 144.6Z" fill="#001426" stroke="#001426"></path><path d="M246 406.4L261.3 427.4L301.3 395.8Z" fill="#08247a" stroke="#08247a"></path><path d="M480.3 600L510.3 526.5L503.3 524.9Z" fill="#001f4d" stroke="#001f4d"></path><path d="M503.3 524.9L535.5 521.5L509.3 414.4Z" fill="#001b3a" stroke="#001b3a"></path><path d="M261.3 427.4L307.5 484.9L346.5 438.4Z" fill="#001426" stroke="#001426"></path><path d="M249.3 201.6L250.3 217.2L321.5 224.2Z" fill="#00101c" stroke="#00101c"></path><path d="M321.5 224.2L250.3 217.2L284.3 276.7Z" fill="#001b3a" stroke="#001b3a"></path><path d="M284.3 276.7L203.8 307.3L245.3 352.3Z" fill="#001830" stroke="#001830"></path><path d="M249.3 201.6L321.5 224.2L353.5 189.6Z" fill="#001f4d" stroke="#001f4d"></path><path d="M245.3 352.3L246 406.4L301.3 395.8Z" fill="#00101c" stroke="#00101c"></path><path d="M510.3 526.5L535.5 521.5L503.3 524.9Z" fill="#001d44" stroke="#001d44"></path><path d="M571.5 505.9L588.8 441.4L509.3 414.4Z" fill="#08247a" stroke="#08247a"></path><path d="M681 345.8L648.8 347.3L725.3 399.8Z" fill="#001d44" stroke="#001d44"></path><path d="M535.5 521.5L571.5 505.9L509.3 414.4Z" fill="#00225f" stroke="#00225f"></path><path d="M439 134.1L423.8 89.1L415 138.6Z" fill="#00101c" stroke="#00101c"></path><path d="M415 138.6L358.8 79.5L353.5 189.6Z" fill="#00101c" stroke="#00101c"></path><path d="M471.3 40.5L472.3 144.6L513.3 141.1Z" fill="#002368" stroke="#002368"></path><path d="M434 600L461 545.5L404.8 513.5Z" fill="#002156" stroke="#002156"></path><path d="M404.8 513.5L461 545.5L435 504.9Z" fill="#00101c" stroke="#00101c"></path><path d="M579.5 600L571.5 505.9L535.5 521.5Z" fill="#002368" stroke="#002368"></path><path d="M235 161.6L249.3 201.6L353.5 189.6Z" fill="#001d44" stroke="#001d44"></path><path d="M250.3 217.2L222 253.7L284.3 276.7Z" fill="#001d44" stroke="#001d44"></path><path d="M615.8 236.7L586.8 130.1L557.5 203.2Z" fill="#001d44" stroke="#001d44"></path><path d="M557.5 128.6L567.5 79.1L513.3 141.1Z" fill="#001b3a" stroke="#001b3a"></path><path d="M632.8 126.6L586.8 130.1L615.8 236.7Z" fill="#00225f" stroke="#00225f"></path><path d="M648.8 347.3L592.5 415.4L667 468.4Z" fill="#001426" stroke="#001426"></path><path d="M648.8 347.3L675 237.7L615.8 236.7Z" fill="#002368" stroke="#002368"></path><path d="M667 468.4L592.5 415.4L588.8 441.4Z" fill="#00101c" stroke="#00101c"></path><path d="M205 230.2L222 253.7L250.3 217.2Z" fill="#001426" stroke="#001426"></path><path d="M245.3 352.3L193.8 354.8L246 406.4Z" fill="#001f4d" stroke="#001f4d"></path><path d="M693 252.2L675 237.7L648.8 347.3Z" fill="#00101c" stroke="#00101c"></path><path d="M307.5 484.9L356.5 538.5L384.8 460.4Z" fill="#001b3a" stroke="#001b3a"></path><path d="M222 253.7L203.8 307.3L284.3 276.7Z" fill="#001830" stroke="#001830"></path><path d="M681 344.3L693 252.2L648.8 347.3Z" fill="#08247a" stroke="#08247a"></path><path d="M694 155.6L632.8 126.6L615.8 236.7Z" fill="#002156" stroke="#002156"></path><path d="M713.3 230.2L693 252.2L746.3 306.7Z" fill="#002156" stroke="#002156"></path><path d="M423.8 89.1L358.8 79.5L415 138.6Z" fill="#08247a" stroke="#08247a"></path><path d="M203.8 307.3L193.8 354.8L245.3 352.3Z" fill="#00101c" stroke="#00101c"></path><path d="M256.3 520.5L307.5 484.9L261.3 427.4Z" fill="#002156" stroke="#002156"></path><path d="M256.3 520.5L282.3 526.9L307.5 484.9Z" fill="#08247a" stroke="#08247a"></path><path d="M222 253.7L141.8 288.7L203.8 307.3Z" fill="#001d44" stroke="#001d44"></path><path d="M203.8 307.3L189 351.3L193.8 354.8Z" fill="#00101c" stroke="#00101c"></path><path d="M205.8 202.2L205 230.2L250.3 217.2Z" fill="#001830" stroke="#001830"></path><path d="M205.8 202.2L250.3 217.2L249.3 201.6Z" fill="#002156" stroke="#002156"></path><path d="M423.8 89.1L357.5 71.1L358.8 79.5Z" fill="#00225f" stroke="#00225f"></path><path d="M265.3 85.1L235 161.6L353.5 189.6Z" fill="#001426" stroke="#001426"></path><path d="M413 0L357.5 71.1L423.8 89.1Z" fill="#002368" stroke="#002368"></path><path d="M186 354.8L189 351.3L141.8 288.7Z" fill="#001830" stroke="#001830"></path><path d="M193.8 354.8L195.8 445.4L246 406.4Z" fill="#001830" stroke="#001830"></path><path d="M265.3 85.1L353.5 189.6L358.8 79.5Z" fill="#002471" stroke="#002471"></path><path d="M694 155.6L615.8 236.7L675 237.7Z" fill="#001426" stroke="#001426"></path><path d="M586.8 130.1L567.5 79.1L557.5 128.6Z" fill="#08247a" stroke="#08247a"></path><path d="M141.8 288.7L189 351.3L203.8 307.3Z" fill="#001d44" stroke="#001d44"></path><path d="M189 351.3L186 354.8L193.8 354.8Z" fill="#001830" stroke="#001830"></path><path d="M307.5 484.9L282.3 526.9L356.5 538.5Z" fill="#00101c" stroke="#00101c"></path><path d="M605.8 60.5L567.5 79.1L586.8 130.1Z" fill="#001426" stroke="#001426"></path><path d="M614.8 526.5L667 468.4L578.8 499.9Z" fill="#001d44" stroke="#001d44"></path><path d="M578.8 499.9L667 468.4L588.8 441.4Z" fill="#001f4d" stroke="#001f4d"></path><path d="M746.3 306.7L693 252.2L681 344.3Z" fill="#002471" stroke="#002471"></path><path d="M614.8 526.5L578.8 499.9L571.5 505.9Z" fill="#00101c" stroke="#00101c"></path><path d="M235 161.6L205.8 202.2L249.3 201.6Z" fill="#001b3a" stroke="#001b3a"></path><path d="M205 230.2L141.8 288.7L222 253.7Z" fill="#002368" stroke="#002368"></path><path d="M579.5 600L614.8 526.5L571.5 505.9Z" fill="#001d44" stroke="#001d44"></path><path d="M579.5 600L535.5 521.5L510.3 526.5Z" fill="#08247a" stroke="#08247a"></path><path d="M256.3 520.5L261.3 427.4L227 511.9Z" fill="#001d44" stroke="#001d44"></path><path d="M481 36.5L471.3 40.5L513.3 141.1Z" fill="#00101c" stroke="#00101c"></path><path d="M746.3 306.7L681 344.3L681 345.8Z" fill="#001d44" stroke="#001d44"></path><path d="M693 252.2L713.3 230.2L675 237.7Z" fill="#00225f" stroke="#00225f"></path><path d="M195.8 445.4L261.3 427.4L246 406.4Z" fill="#00101c" stroke="#00101c"></path><path d="M567.5 79.1L481 36.5L513.3 141.1Z" fill="#002471" stroke="#002471"></path><path d="M471.3 40.5L427.8 0L423.8 89.1Z" fill="#001d44" stroke="#001d44"></path><path d="M186 354.8L195.8 445.4L193.8 354.8Z" fill="#002156" stroke="#002156"></path><path d="M396.8 600L434 600L404.8 513.5Z" fill="#001426" stroke="#001426"></path><path d="M461 545.5L480.3 600L503.3 524.9Z" fill="#002471" stroke="#002471"></path><path d="M396.8 600L404.8 513.5L356.5 538.5Z" fill="#001d44" stroke="#001d44"></path><path d="M396.8 600L356.5 538.5L315.5 600Z" fill="#00101c" stroke="#00101c"></path><path d="M434 600L480.3 600L461 545.5Z" fill="#001d44" stroke="#001d44"></path><path d="M315.5 600L356.5 538.5L282.3 526.9Z" fill="#001830" stroke="#001830"></path><path d="M667 468.4L725.3 399.8L648.8 347.3Z" fill="#001d44" stroke="#001d44"></path><path d="M713.3 230.2L694 155.6L675 237.7Z" fill="#001830" stroke="#001830"></path><path d="M632.8 126.6L605.8 60.5L586.8 130.1Z" fill="#002471" stroke="#002471"></path><path d="M327.5 17.5L265.3 85.1L357.5 71.1Z" fill="#001830" stroke="#001830"></path><path d="M357.5 71.1L265.3 85.1L358.8 79.5Z" fill="#001830" stroke="#001830"></path><path d="M178.8 118.1L148.5 182.6L205.8 202.2Z" fill="#002368" stroke="#002368"></path><path d="M195.8 445.4L227 511.9L261.3 427.4Z" fill="#001d44" stroke="#001d44"></path><path d="M306.3 600L315.5 600L282.3 526.9Z" fill="#001b3a" stroke="#001b3a"></path><path d="M614.8 526.5L665 518.9L667 468.4Z" fill="#00101c" stroke="#00101c"></path><path d="M667 468.4L724.3 464.4L725.3 399.8Z" fill="#001426" stroke="#001426"></path><path d="M647 600L665 518.9L614.8 526.5Z" fill="#00101c" stroke="#00101c"></path><path d="M770.3 343.3L746.3 306.7L681 345.8Z" fill="#08247a" stroke="#08247a"></path><path d="M722.3 111.1L696 92.5L694 155.6Z" fill="#001426" stroke="#001426"></path><path d="M666 72.1L605.8 60.5L632.8 126.6Z" fill="#002471" stroke="#002471"></path><path d="M567.5 79.1L562.5 30.5L481 36.5Z" fill="#001f4d" stroke="#001f4d"></path><path d="M605.8 60.5L562.5 30.5L567.5 79.1Z" fill="#08247a" stroke="#08247a"></path><path d="M148.5 182.6L205 230.2L205.8 202.2Z" fill="#001d44" stroke="#001d44"></path><path d="M148.5 182.6L141.8 288.7L205 230.2Z" fill="#001d44" stroke="#001d44"></path><path d="M186 354.8L114.5 410.8L195.8 445.4Z" fill="#002471" stroke="#002471"></path><path d="M480.3 600L579.5 600L510.3 526.5Z" fill="#00101c" stroke="#00101c"></path><path d="M721.3 495.9L724.3 464.4L667 468.4Z" fill="#00225f" stroke="#00225f"></path><path d="M725.3 399.8L770.3 343.3L681 345.8Z" fill="#002471" stroke="#002471"></path><path d="M696 521.5L667 468.4L665 518.9Z" fill="#001b3a" stroke="#001b3a"></path><path d="M306.3 600L282.3 526.9L264 576.5Z" fill="#001f4d" stroke="#001f4d"></path><path d="M471.3 0L471.3 40.5L481 36.5Z" fill="#002156" stroke="#002156"></path><path d="M471.3 0L427.8 0L471.3 40.5Z" fill="#002156" stroke="#002156"></path><path d="M562.5 30.5L471.3 0L481 36.5Z" fill="#00225f" stroke="#00225f"></path><path d="M264 576.5L282.3 526.9L256.3 520.5Z" fill="#08247a" stroke="#08247a"></path><path d="M427.8 0L413 0L423.8 89.1Z" fill="#001830" stroke="#001830"></path><path d="M227 511.9L264 576.5L256.3 520.5Z" fill="#001b3a" stroke="#001b3a"></path><path d="M647 600L696 521.5L665 518.9Z" fill="#002156" stroke="#002156"></path><path d="M351.5 0L327.5 17.5L357.5 71.1Z" fill="#001b3a" stroke="#001b3a"></path><path d="M781.5 359.3L770.3 343.3L725.3 399.8Z" fill="#001d44" stroke="#001d44"></path><path d="M762.3 154.6L694 155.6L713.3 230.2Z" fill="#08247a" stroke="#08247a"></path><path d="M579.5 600L603.8 600L614.8 526.5Z" fill="#001426" stroke="#001426"></path><path d="M195.8 445.4L179.8 500.9L227 511.9Z" fill="#002156" stroke="#002156"></path><path d="M227 511.9L194 600L264 576.5Z" fill="#001d44" stroke="#001d44"></path><path d="M114.5 410.8L179.8 500.9L195.8 445.4Z" fill="#001b3a" stroke="#001b3a"></path><path d="M141.8 288.7L125.5 363.3L186 354.8Z" fill="#002368" stroke="#002368"></path><path d="M696 521.5L721.3 495.9L667 468.4Z" fill="#08247a" stroke="#08247a"></path><path d="M778.5 449.4L781.5 359.3L725.3 399.8Z" fill="#001f4d" stroke="#001f4d"></path><path d="M696 92.5L666 72.1L632.8 126.6Z" fill="#001426" stroke="#001426"></path><path d="M589.5 0L584.8 0L562.5 30.5Z" fill="#001426" stroke="#001426"></path><path d="M696 92.5L632.8 126.6L694 155.6Z" fill="#00101c" stroke="#00101c"></path><path d="M178.8 118.1L235 161.6L201 76.1Z" fill="#001b3a" stroke="#001b3a"></path><path d="M178.8 118.1L205.8 202.2L235 161.6Z" fill="#001426" stroke="#001426"></path><path d="M141.8 288.7L98.5 285.7L125.5 363.3Z" fill="#08247a" stroke="#08247a"></path><path d="M327.5 17.5L247.3 56.5L265.3 85.1Z" fill="#002471" stroke="#002471"></path><path d="M413 0L351.5 0L357.5 71.1Z" fill="#00225f" stroke="#00225f"></path><path d="M327.5 17.5L270.3 0L247.3 56.5Z" fill="#08247a" stroke="#08247a"></path><path d="M722.3 111.1L694 155.6L762.3 154.6Z" fill="#002368" stroke="#002368"></path><path d="M201 76.1L235 161.6L265.3 85.1Z" fill="#001d44" stroke="#001d44"></path><path d="M778.5 449.4L725.3 399.8L724.3 464.4Z" fill="#08247a" stroke="#08247a"></path><path d="M783.5 208.2L713.3 230.2L746.3 306.7Z" fill="#002368" stroke="#002368"></path><path d="M794.5 306.7L746.3 306.7L770.3 343.3Z" fill="#002368" stroke="#002368"></path><path d="M589.5 0L562.5 30.5L605.8 60.5Z" fill="#002471" stroke="#002471"></path><path d="M562.5 30.5L584.8 0L471.3 0Z" fill="#001830" stroke="#001830"></path><path d="M589.5 0L605.8 60.5L693 0Z" fill="#002156" stroke="#002156"></path><path d="M605.8 60.5L666 72.1L693 0Z" fill="#002471" stroke="#002471"></path><path d="M247.3 56.5L201 76.1L265.3 85.1Z" fill="#002471" stroke="#002471"></path><path d="M203.8 19.5L201 76.1L247.3 56.5Z" fill="#001f4d" stroke="#001f4d"></path><path d="M693 0L666 72.1L711.3 0Z" fill="#002156" stroke="#002156"></path><path d="M781.5 359.3L794.5 306.7L770.3 343.3Z" fill="#001f4d" stroke="#001f4d"></path><path d="M603.8 600L647 600L614.8 526.5Z" fill="#002368" stroke="#002368"></path><path d="M696 521.5L758.3 516.5L721.3 495.9Z" fill="#002368" stroke="#002368"></path><path d="M95.5 422.4L114.5 410.8L64.3 345.3Z" fill="#002368" stroke="#002368"></path><path d="M125.5 363.3L114.5 410.8L186 354.8Z" fill="#001426" stroke="#001426"></path><path d="M178.8 118.1L143.8 143.6L148.5 182.6Z" fill="#001f4d" stroke="#001f4d"></path><path d="M148.5 182.6L98.5 285.7L141.8 288.7Z" fill="#001830" stroke="#001830"></path><path d="M119.5 70.1L143.8 143.6L178.8 118.1Z" fill="#001b3a" stroke="#001b3a"></path><path d="M99.5 178.2L98.5 285.7L148.5 182.6Z" fill="#002368" stroke="#002368"></path><path d="M820.8 247.7L783.5 208.2L746.3 306.7Z" fill="#001d44" stroke="#001d44"></path><path d="M785.5 191.6L762.3 154.6L713.3 230.2Z" fill="#08247a" stroke="#08247a"></path><path d="M111.5 528.9L163.8 526.5L179.8 500.9Z" fill="#002368" stroke="#002368"></path><path d="M179.8 500.9L163.8 526.5L227 511.9Z" fill="#001b3a" stroke="#001b3a"></path><path d="M264 576.5L194 600L306.3 600Z" fill="#08247a" stroke="#08247a"></path><path d="M758.3 516.5L724.3 464.4L721.3 495.9Z" fill="#001f4d" stroke="#001f4d"></path><path d="M758.3 516.5L778.5 449.4L724.3 464.4Z" fill="#00225f" stroke="#00225f"></path><path d="M781.5 359.3L802.5 364.8L794.5 306.7Z" fill="#002368" stroke="#002368"></path><path d="M778.5 449.4L802.5 364.8L781.5 359.3Z" fill="#001d44" stroke="#001d44"></path><path d="M819.8 170.6L785.5 191.6L828.8 188.2Z" fill="#001d44" stroke="#001d44"></path><path d="M820.8 247.7L746.3 306.7L794.5 306.7Z" fill="#002471" stroke="#002471"></path><path d="M783.5 208.2L785.5 191.6L713.3 230.2Z" fill="#001426" stroke="#001426"></path><path d="M351.5 0L270.3 0L327.5 17.5Z" fill="#001b3a" stroke="#001b3a"></path><path d="M64.3 345.3L114.5 410.8L125.5 363.3Z" fill="#001426" stroke="#001426"></path><path d="M114.5 410.8L95.5 422.4L179.8 500.9Z" fill="#002156" stroke="#002156"></path><path d="M771.5 529.9L758.3 516.5L696 521.5Z" fill="#00225f" stroke="#00225f"></path><path d="M80.3 165.6L99.5 178.2L143.8 143.6Z" fill="#002471" stroke="#002471"></path><path d="M143.8 143.6L99.5 178.2L148.5 182.6Z" fill="#002471" stroke="#002471"></path><path d="M98.5 285.7L64.3 345.3L125.5 363.3Z" fill="#00101c" stroke="#00101c"></path><path d="M119.5 70.1L178.8 118.1L201 76.1Z" fill="#002156" stroke="#002156"></path><path d="M835.8 334.3L820.8 247.7L794.5 306.7Z" fill="#001830" stroke="#001830"></path><path d="M806.5 126.1L748.3 79.5L762.3 154.6Z" fill="#08247a" stroke="#08247a"></path><path d="M133.8 600L194 600L163.8 526.5Z" fill="#001f4d" stroke="#001f4d"></path><path d="M163.8 526.5L194 600L227 511.9Z" fill="#002368" stroke="#002368"></path><path d="M762.3 154.6L748.3 79.5L722.3 111.1Z" fill="#002368" stroke="#002368"></path><path d="M722.3 111.1L748.3 79.5L696 92.5Z" fill="#002156" stroke="#002156"></path><path d="M819.8 170.6L762.3 154.6L785.5 191.6Z" fill="#001426" stroke="#001426"></path><path d="M270.3 0L203.8 19.5L247.3 56.5Z" fill="#002471" stroke="#002471"></path><path d="M30.3 304.7L64.3 345.3L98.5 285.7Z" fill="#001830" stroke="#001830"></path><path d="M769.3 600L771.5 529.9L696 521.5Z" fill="#001b3a" stroke="#001b3a"></path><path d="M758.3 516.5L771.5 529.9L778.5 449.4Z" fill="#002156" stroke="#002156"></path><path d="M823.8 420.8L835.8 334.3L802.5 364.8Z" fill="#00225f" stroke="#00225f"></path><path d="M823.8 420.8L802.5 364.8L778.5 449.4Z" fill="#00225f" stroke="#00225f"></path><path d="M802.5 364.8L835.8 334.3L794.5 306.7Z" fill="#001f4d" stroke="#001f4d"></path><path d="M832.8 455.4L823.8 420.8L778.5 449.4Z" fill="#001b3a" stroke="#001b3a"></path><path d="M203.8 19.5L189 22.5L201 76.1Z" fill="#001d44" stroke="#001d44"></path><path d="M201 0L189 22.5L203.8 19.5Z" fill="#002471" stroke="#002471"></path><path d="M119.5 70.1L80.3 165.6L143.8 143.6Z" fill="#001d44" stroke="#001d44"></path><path d="M99.5 178.2L37.3 242.2L98.5 285.7Z" fill="#002368" stroke="#002368"></path><path d="M89.3 511.5L111.5 528.9L179.8 500.9Z" fill="#002471" stroke="#002471"></path><path d="M89.3 511.5L179.8 500.9L95.5 422.4Z" fill="#001d44" stroke="#001d44"></path><path d="M828.8 188.2L783.5 208.2L820.8 247.7Z" fill="#001426" stroke="#001426"></path><path d="M828.8 188.2L785.5 191.6L783.5 208.2Z" fill="#001830" stroke="#001830"></path><path d="M711.3 0L696 92.5L748.3 79.5Z" fill="#00101c" stroke="#00101c"></path><path d="M711.3 0L666 72.1L696 92.5Z" fill="#001426" stroke="#001426"></path><path d="M0 399.8L72.3 453.4L95.5 422.4Z" fill="#00101c" stroke="#00101c"></path><path d="M900 243.2L828.8 188.2L820.8 247.7Z" fill="#002156" stroke="#002156"></path><path d="M270.3 0L201 0L203.8 19.5Z" fill="#002156" stroke="#002156"></path><path d="M189 22.5L119.5 70.1L201 76.1Z" fill="#002156" stroke="#002156"></path><path d="M818.5 50.5L806.5 126.1L874.8 135.1Z" fill="#001f4d" stroke="#001f4d"></path><path d="M819.8 170.6L806.5 126.1L762.3 154.6Z" fill="#001d44" stroke="#001d44"></path><path d="M771.5 529.9L832.8 455.4L778.5 449.4Z" fill="#001d44" stroke="#001d44"></path><path d="M823.8 420.8L900 368.8L835.8 334.3Z" fill="#00101c" stroke="#00101c"></path><path d="M72.3 453.4L89.3 511.5L95.5 422.4Z" fill="#08247a" stroke="#08247a"></path><path d="M111.5 528.9L133.8 600L163.8 526.5Z" fill="#08247a" stroke="#08247a"></path><path d="M153.8 0L119.5 70.1L189 22.5Z" fill="#08247a" stroke="#08247a"></path><path d="M756.5 0L711.3 0L748.3 79.5Z" fill="#002156" stroke="#002156"></path><path d="M0 205.2L37.3 242.2L80.3 165.6Z" fill="#001830" stroke="#001830"></path><path d="M80.3 165.6L37.3 242.2L99.5 178.2Z" fill="#001f4d" stroke="#001f4d"></path><path d="M64.3 345.3L18.3 357.8L95.5 422.4Z" fill="#001426" stroke="#001426"></path><path d="M37.3 242.2L30.3 304.7L98.5 285.7Z" fill="#00101c" stroke="#00101c"></path><path d="M102.5 600L133.8 600L111.5 528.9Z" fill="#002156" stroke="#002156"></path><path d="M647 600L769.3 600L696 521.5Z" fill="#001b3a" stroke="#001b3a"></path><path d="M771.5 529.9L849.8 549.5L832.8 455.4Z" fill="#001830" stroke="#001830"></path><path d="M55.3 511.9L73.5 524.5L89.3 511.5Z" fill="#08247a" stroke="#08247a"></path><path d="M89.3 511.5L73.5 524.5L111.5 528.9Z" fill="#001d44" stroke="#001d44"></path><path d="M55.3 511.9L89.3 511.5L72.3 453.4Z" fill="#002156" stroke="#002156"></path><path d="M769.3 600L773.5 600L771.5 529.9Z" fill="#00101c" stroke="#00101c"></path><path d="M201 0L153.8 0L189 22.5Z" fill="#001f4d" stroke="#001f4d"></path><path d="M0 313.3L18.3 357.8L30.3 304.7Z" fill="#002156" stroke="#002156"></path><path d="M30.3 304.7L18.3 357.8L64.3 345.3Z" fill="#001426" stroke="#001426"></path><path d="M773.5 600L808.5 565.5L771.5 529.9Z" fill="#001f4d" stroke="#001f4d"></path><path d="M0 478.9L55.3 511.9L72.3 453.4Z" fill="#001b3a" stroke="#001b3a"></path><path d="M73.5 524.5L102.5 600L111.5 528.9Z" fill="#08247a" stroke="#08247a"></path><path d="M122.5 0L95.5 54.5L119.5 70.1Z" fill="#001426" stroke="#001426"></path><path d="M119.5 70.1L43.3 105.1L80.3 165.6Z" fill="#002368" stroke="#002368"></path><path d="M818.5 50.5L756.5 0L748.3 79.5Z" fill="#001b3a" stroke="#001b3a"></path><path d="M849.8 549.5L869.8 463.9L832.8 455.4Z" fill="#002156" stroke="#002156"></path><path d="M832.8 455.4L869.8 463.9L823.8 420.8Z" fill="#002156" stroke="#002156"></path><path d="M835.8 334.3L900 297.3L820.8 247.7Z" fill="#00101c" stroke="#00101c"></path><path d="M69.3 600L102.5 600L73.5 524.5Z" fill="#002471" stroke="#002471"></path><path d="M0 296.7L30.3 304.7L37.3 242.2Z" fill="#001426" stroke="#001426"></path><path d="M0 296.7L0 313.3L30.3 304.7Z" fill="#002368" stroke="#002368"></path><path d="M18.3 357.8L0 399.8L95.5 422.4Z" fill="#001f4d" stroke="#001f4d"></path><path d="M0 205.2L0 296.7L37.3 242.2Z" fill="#002471" stroke="#002471"></path><path d="M900 368.8L900 298.7L835.8 334.3Z" fill="#08247a" stroke="#08247a"></path><path d="M874.8 135.1L806.5 126.1L819.8 170.6Z" fill="#00225f" stroke="#00225f"></path><path d="M806.5 126.1L818.5 50.5L748.3 79.5Z" fill="#00101c" stroke="#00101c"></path><path d="M900 298.7L900 297.3L835.8 334.3Z" fill="#002471" stroke="#002471"></path><path d="M153.8 0L122.5 0L119.5 70.1Z" fill="#001f4d" stroke="#001f4d"></path><path d="M869.8 463.9L900 368.8L823.8 420.8Z" fill="#00101c" stroke="#00101c"></path><path d="M874.8 135.1L819.8 170.6L828.8 188.2Z" fill="#002471" stroke="#002471"></path><path d="M0 313.3L0 399.8L18.3 357.8Z" fill="#00225f" stroke="#00225f"></path><path d="M36.3 44.5L43.3 105.1L95.5 54.5Z" fill="#002471" stroke="#002471"></path><path d="M95.5 54.5L43.3 105.1L119.5 70.1Z" fill="#00225f" stroke="#00225f"></path><path d="M900 297.3L900 243.2L820.8 247.7Z" fill="#001830" stroke="#001830"></path><path d="M0 162.6L0 205.2L80.3 165.6Z" fill="#00101c" stroke="#00101c"></path><path d="M900 142.1L874.8 135.1L828.8 188.2Z" fill="#002471" stroke="#002471"></path><path d="M808.5 565.5L849.8 549.5L771.5 529.9Z" fill="#001f4d" stroke="#001f4d"></path><path d="M869.8 463.9L900 472.4L900 368.8Z" fill="#00225f" stroke="#00225f"></path><path d="M839.8 600L849.8 549.5L808.5 565.5Z" fill="#001830" stroke="#001830"></path><path d="M0 399.8L0 452.4L72.3 453.4Z" fill="#001b3a" stroke="#001b3a"></path><path d="M0 571.5L69.3 600L73.5 524.5Z" fill="#00225f" stroke="#00225f"></path><path d="M0 571.5L73.5 524.5L55.3 511.9Z" fill="#001b3a" stroke="#001b3a"></path><path d="M0 145.1L0 162.6L80.3 165.6Z" fill="#001d44" stroke="#001d44"></path><path d="M900 52.5L832.8 37.5L818.5 50.5Z" fill="#00101c" stroke="#00101c"></path><path d="M818.5 50.5L832.8 37.5L756.5 0Z" fill="#00225f" stroke="#00225f"></path><path d="M0 452.4L0 478.9L72.3 453.4Z" fill="#001830" stroke="#001830"></path><path d="M900 521.9L900 472.4L869.8 463.9Z" fill="#002368" stroke="#002368"></path><path d="M0 50.5L0 145.1L43.3 105.1Z" fill="#001d44" stroke="#001d44"></path><path d="M43.3 105.1L0 145.1L80.3 165.6Z" fill="#001f4d" stroke="#001f4d"></path><path d="M122.5 0L87.3 0L95.5 54.5Z" fill="#002368" stroke="#002368"></path><path d="M773.5 600L839.8 600L808.5 565.5Z" fill="#001f4d" stroke="#001f4d"></path><path d="M849.8 549.5L900 521.9L869.8 463.9Z" fill="#001426" stroke="#001426"></path><path d="M900 243.2L900 142.1L828.8 188.2Z" fill="#002156" stroke="#002156"></path><path d="M874.8 135.1L900 52.5L818.5 50.5Z" fill="#001b3a" stroke="#001b3a"></path><path d="M900 142.1L900 129.6L874.8 135.1Z" fill="#001f4d" stroke="#001f4d"></path><path d="M87.3 0L36.3 44.5L95.5 54.5Z" fill="#001426" stroke="#001426"></path><path d="M900 526.5L900 521.9L849.8 549.5Z" fill="#001426" stroke="#001426"></path><path d="M900 600L900 526.5L849.8 549.5Z" fill="#002368" stroke="#002368"></path><path d="M0 478.9L0 571.5L55.3 511.9Z" fill="#001426" stroke="#001426"></path><path d="M900 52.5L861.8 0L832.8 37.5Z" fill="#00101c" stroke="#00101c"></path><path d="M832.8 37.5L861.8 0L756.5 0Z" fill="#00225f" stroke="#00225f"></path><path d="M0 0L0 50.5L36.3 44.5Z" fill="#00101c" stroke="#00101c"></path><path d="M36.3 44.5L0 50.5L43.3 105.1Z" fill="#001b3a" stroke="#001b3a"></path><path d="M900 129.6L900 52.5L874.8 135.1Z" fill="#001830" stroke="#001830"></path><path d="M0 571.5L0 600L69.3 600Z" fill="#001d44" stroke="#001d44"></path><path d="M839.8 600L900 600L849.8 549.5Z" fill="#001426" stroke="#001426"></path><path d="M87.3 0L0 0L36.3 44.5Z" fill="#002156" stroke="#002156"></path><path d="M900 52.5L900 0L861.8 0Z" fill="#001830" stroke="#001830"></path></g></svg>