<svg id="visual" viewBox="0 0 900 600" width="900" height="600" xmlns="http://www.w3.org/2000/svg" xmlns:xlink="http://www.w3.org/1999/xlink" version="1.1"><g stroke-width="1" stroke-linejoin="bevel"><path d="M494 334L384 377L516 430Z" fill="#001835" stroke="#001835"></path><path d="M384 377L493 472L516 430Z" fill="#021a43" stroke="#021a43"></path><path d="M384 377L378 488L493 472Z" fill="#00152b" stroke="#00152b"></path><path d="M494 334L373 267L384 377Z" fill="#061b48" stroke="#061b48"></path><path d="M384 377L293 408L378 488Z" fill="#021a43" stroke="#021a43"></path><path d="M493 472L584 479L516 430Z" fill="#00101c" stroke="#00101c"></path><path d="M516 430L594 305L494 334Z" fill="#001730" stroke="#001730"></path><path d="M503 600L584 479L493 472Z" fill="#001730" stroke="#001730"></path><path d="M331 263L293 408L384 377Z" fill="#001426" stroke="#001426"></path><path d="M633 382L594 305L516 430Z" fill="#001426" stroke="#001426"></path><path d="M494 334L397 224L373 267Z" fill="#061b48" stroke="#061b48"></path><path d="M521 221L397 224L494 334Z" fill="#001730" stroke="#001730"></path><path d="M373 267L331 263L384 377Z" fill="#001835" stroke="#001835"></path><path d="M331 238L331 263L373 267Z" fill="#001a3f" stroke="#001a3f"></path><path d="M584 479L633 382L516 430Z" fill="#00152b" stroke="#00152b"></path><path d="M594 305L521 221L494 334Z" fill="#061b48" stroke="#061b48"></path><path d="M293 408L292 508L378 488Z" fill="#001221" stroke="#001221"></path><path d="M404 600L503 600L493 472Z" fill="#00152b" stroke="#00152b"></path><path d="M397 224L331 238L373 267Z" fill="#00101c" stroke="#00101c"></path><path d="M331 263L209 263L293 408Z" fill="#061b48" stroke="#061b48"></path><path d="M584 479L664 394L633 382Z" fill="#001426" stroke="#001426"></path><path d="M633 382L690 274L594 305Z" fill="#001a3f" stroke="#001a3f"></path><path d="M404 600L493 472L378 488Z" fill="#001221" stroke="#001221"></path><path d="M584 479L730 474L664 394Z" fill="#061b48" stroke="#061b48"></path><path d="M292 508L404 600L378 488Z" fill="#001730" stroke="#001730"></path><path d="M690 274L589 201L594 305Z" fill="#001426" stroke="#001426"></path><path d="M594 305L589 201L521 221Z" fill="#001221" stroke="#001221"></path><path d="M371 87L325 139L397 224Z" fill="#0b1b4c" stroke="#0b1b4c"></path><path d="M664 394L690 274L633 382Z" fill="#00152b" stroke="#00152b"></path><path d="M503 600L630 600L584 479Z" fill="#00152b" stroke="#00152b"></path><path d="M664 394L790 261L690 274Z" fill="#0b1b4c" stroke="#0b1b4c"></path><path d="M178 185L209 263L331 238Z" fill="#001a3f" stroke="#001a3f"></path><path d="M331 238L209 263L331 263Z" fill="#001221" stroke="#001221"></path><path d="M293 408L204 537L292 508Z" fill="#001a3f" stroke="#001a3f"></path><path d="M292 508L260 600L404 600Z" fill="#00101c" stroke="#00101c"></path><path d="M204 537L260 600L292 508Z" fill="#001a3f" stroke="#001a3f"></path><path d="M371 87L397 224L521 221Z" fill="#00152b" stroke="#00152b"></path><path d="M397 224L325 139L331 238Z" fill="#0b1b4c" stroke="#0b1b4c"></path><path d="M630 600L730 474L584 479Z" fill="#001426" stroke="#001426"></path><path d="M136 428L204 537L293 408Z" fill="#00101c" stroke="#00101c"></path><path d="M209 263L162 360L293 408Z" fill="#0b1b4c" stroke="#0b1b4c"></path><path d="M204 537L228 600L260 600Z" fill="#001221" stroke="#001221"></path><path d="M630 600L690 600L730 474Z" fill="#001835" stroke="#001835"></path><path d="M538 65L371 87L521 221Z" fill="#00193a" stroke="#00193a"></path><path d="M325 139L178 185L331 238Z" fill="#001730" stroke="#001730"></path><path d="M162 360L136 428L293 408Z" fill="#001835" stroke="#001835"></path><path d="M204 537L119 528L228 600Z" fill="#001835" stroke="#001835"></path><path d="M571 63L538 65L589 201Z" fill="#001730" stroke="#001730"></path><path d="M589 201L538 65L521 221Z" fill="#001221" stroke="#001221"></path><path d="M209 263L122 294L162 360Z" fill="#021a43" stroke="#021a43"></path><path d="M162 360L122 294L136 428Z" fill="#001835" stroke="#001835"></path><path d="M190 116L178 185L325 139Z" fill="#001835" stroke="#001835"></path><path d="M111 202L122 294L209 263Z" fill="#00101c" stroke="#00101c"></path><path d="M790 261L735 187L690 274Z" fill="#001221" stroke="#001221"></path><path d="M690 274L735 187L589 201Z" fill="#00193a" stroke="#00193a"></path><path d="M737 95L571 63L589 201Z" fill="#00152b" stroke="#00152b"></path><path d="M79 600L119 528L0 514Z" fill="#001730" stroke="#001730"></path><path d="M136 428L119 528L204 537Z" fill="#00101c" stroke="#00101c"></path><path d="M834 413L790 261L664 394Z" fill="#021a43" stroke="#021a43"></path><path d="M831 600L827 464L730 474Z" fill="#00101c" stroke="#00101c"></path><path d="M730 474L834 413L664 394Z" fill="#061b48" stroke="#061b48"></path><path d="M827 464L834 413L730 474Z" fill="#00152b" stroke="#00152b"></path><path d="M290 0L190 116L325 139Z" fill="#00193a" stroke="#00193a"></path><path d="M178 185L111 202L209 263Z" fill="#001730" stroke="#001730"></path><path d="M100 139L111 202L178 185Z" fill="#001426" stroke="#001426"></path><path d="M0 431L119 528L136 428Z" fill="#00193a" stroke="#00193a"></path><path d="M582 0L538 65L571 63Z" fill="#061b48" stroke="#061b48"></path><path d="M582 0L508 0L538 65Z" fill="#001221" stroke="#001221"></path><path d="M538 65L508 0L371 87Z" fill="#001730" stroke="#001730"></path><path d="M371 87L290 0L325 139Z" fill="#021a43" stroke="#021a43"></path><path d="M508 0L374 0L371 87Z" fill="#00193a" stroke="#00193a"></path><path d="M834 164L737 95L735 187Z" fill="#001a3f" stroke="#001a3f"></path><path d="M735 187L737 95L589 201Z" fill="#00193a" stroke="#00193a"></path><path d="M710 0L582 0L571 63Z" fill="#00193a" stroke="#00193a"></path><path d="M374 0L290 0L371 87Z" fill="#00193a" stroke="#00193a"></path><path d="M190 116L100 139L178 185Z" fill="#061b48" stroke="#061b48"></path><path d="M0 431L136 428L122 294Z" fill="#001730" stroke="#001730"></path><path d="M119 528L79 600L228 600Z" fill="#061b48" stroke="#061b48"></path><path d="M690 600L831 600L730 474Z" fill="#001a3f" stroke="#001a3f"></path><path d="M827 464L900 433L834 413Z" fill="#001835" stroke="#001835"></path><path d="M89 0L100 139L190 116Z" fill="#0b1b4c" stroke="#0b1b4c"></path><path d="M0 279L0 431L122 294Z" fill="#0b1b4c" stroke="#0b1b4c"></path><path d="M790 261L834 164L735 187Z" fill="#0b1b4c" stroke="#0b1b4c"></path><path d="M900 160L834 164L790 261Z" fill="#00152b" stroke="#00152b"></path><path d="M900 538L900 433L827 464Z" fill="#001221" stroke="#001221"></path><path d="M834 413L900 320L790 261Z" fill="#001a3f" stroke="#001a3f"></path><path d="M900 433L900 320L834 413Z" fill="#001730" stroke="#001730"></path><path d="M0 279L122 294L111 202Z" fill="#001426" stroke="#001426"></path><path d="M834 164L784 66L737 95Z" fill="#001221" stroke="#001221"></path><path d="M737 95L710 0L571 63Z" fill="#061b48" stroke="#061b48"></path><path d="M0 185L0 279L111 202Z" fill="#021a43" stroke="#021a43"></path><path d="M831 600L900 538L827 464Z" fill="#021a43" stroke="#021a43"></path><path d="M0 431L0 514L119 528Z" fill="#001730" stroke="#001730"></path><path d="M784 66L710 0L737 95Z" fill="#001426" stroke="#001426"></path><path d="M290 0L172 0L190 116Z" fill="#061b48" stroke="#061b48"></path><path d="M100 139L0 185L111 202Z" fill="#061b48" stroke="#061b48"></path><path d="M831 600L900 600L900 538Z" fill="#001835" stroke="#001835"></path><path d="M0 514L0 600L79 600Z" fill="#001835" stroke="#001835"></path><path d="M0 138L0 185L100 139Z" fill="#00193a" stroke="#00193a"></path><path d="M834 164L900 109L784 66Z" fill="#00101c" stroke="#00101c"></path><path d="M784 66L803 0L710 0Z" fill="#021a43" stroke="#021a43"></path><path d="M900 320L900 160L790 261Z" fill="#021a43" stroke="#021a43"></path><path d="M89 0L0 138L100 139Z" fill="#001221" stroke="#001221"></path><path d="M900 0L803 0L784 66Z" fill="#021a43" stroke="#021a43"></path><path d="M900 160L900 109L834 164Z" fill="#001221" stroke="#001221"></path><path d="M172 0L89 0L190 116Z" fill="#001730" stroke="#001730"></path><path d="M900 109L900 0L784 66Z" fill="#001426" stroke="#001426"></path><path d="M89 0L0 0L0 138Z" fill="#001221" stroke="#001221"></path></g></svg>