<svg id="visual" viewBox="0 0 1920 1080" width="1920" height="1080" xmlns="http://www.w3.org/2000/svg" xmlns:xlink="http://www.w3.org/1999/xlink" version="1.1"><g stroke-width="1" stroke-linejoin="bevel"><path d="M1029.7 549L1040.7 699L1242 576Z" fill="#191f2d" stroke="#191f2d"></path><path d="M1040.7 699L1295 756L1242 576Z" fill="#222534" stroke="#222534"></path><path d="M1242 576L1101.7 347L1029.7 549Z" fill="#222534" stroke="#222534"></path><path d="M1040.7 699L1068.7 890L1295 756Z" fill="#151c2a" stroke="#151c2a"></path><path d="M1068.7 890L1306 860L1295 756Z" fill="#2b2b3b" stroke="#2b2b3b"></path><path d="M818.3 508L839.3 731L1029.7 549Z" fill="#101926" stroke="#101926"></path><path d="M1029.7 549L839.3 731L1040.7 699Z" fill="#101926" stroke="#101926"></path><path d="M1040.7 699L871.3 863L1068.7 890Z" fill="#302e3e" stroke="#302e3e"></path><path d="M1490.3 515L1300 354L1242 576Z" fill="#06141f" stroke="#06141f"></path><path d="M1242 576L1300 354L1101.7 347Z" fill="#2b2b3b" stroke="#2b2b3b"></path><path d="M1455.3 757L1242 576L1295 756Z" fill="#222534" stroke="#222534"></path><path d="M854.3 323L818.3 508L1029.7 549Z" fill="#272837" stroke="#272837"></path><path d="M1306 860L1455.3 757L1295 756Z" fill="#272837" stroke="#272837"></path><path d="M839.3 731L871.3 863L1040.7 699Z" fill="#222534" stroke="#222534"></path><path d="M1455.3 757L1490.3 515L1242 576Z" fill="#00101c" stroke="#00101c"></path><path d="M1077.7 211L854.3 323L1101.7 347Z" fill="#272837" stroke="#272837"></path><path d="M1101.7 347L854.3 323L1029.7 549Z" fill="#101926" stroke="#101926"></path><path d="M1308 185L1077.7 211L1101.7 347Z" fill="#222534" stroke="#222534"></path><path d="M1306 860L1478.3 861L1455.3 757Z" fill="#0c1723" stroke="#0c1723"></path><path d="M1455.3 757L1695.7 712L1490.3 515Z" fill="#06141f" stroke="#06141f"></path><path d="M1471.3 1080L1478.3 861L1306 860Z" fill="#272837" stroke="#272837"></path><path d="M1490.3 515L1481.3 347L1300 354Z" fill="#302e3e" stroke="#302e3e"></path><path d="M1300 354L1308 185L1101.7 347Z" fill="#191f2d" stroke="#191f2d"></path><path d="M671 363L677 524L818.3 508Z" fill="#191f2d" stroke="#191f2d"></path><path d="M818.3 508L677 524L839.3 731Z" fill="#302e3e" stroke="#302e3e"></path><path d="M839.3 731L676 729L871.3 863Z" fill="#272837" stroke="#272837"></path><path d="M677 524L676 729L839.3 731Z" fill="#101926" stroke="#101926"></path><path d="M1481.3 347L1308 185L1300 354Z" fill="#1d2230" stroke="#1d2230"></path><path d="M890.3 1080L1060.7 1080L1068.7 890Z" fill="#151c2a" stroke="#151c2a"></path><path d="M1068.7 890L1286 1080L1306 860Z" fill="#06141f" stroke="#06141f"></path><path d="M890.3 1080L1068.7 890L871.3 863Z" fill="#0c1723" stroke="#0c1723"></path><path d="M1060.7 1080L1286 1080L1068.7 890Z" fill="#101926" stroke="#101926"></path><path d="M1077.7 211L813.3 205L854.3 323Z" fill="#302e3e" stroke="#302e3e"></path><path d="M854.3 323L671 363L818.3 508Z" fill="#00101c" stroke="#00101c"></path><path d="M869.3 0L813.3 205L1077.7 211Z" fill="#151c2a" stroke="#151c2a"></path><path d="M648 1080L890.3 1080L871.3 863Z" fill="#191f2d" stroke="#191f2d"></path><path d="M813.3 205L671 363L854.3 323Z" fill="#222534" stroke="#222534"></path><path d="M443.7 715L628 876L676 729Z" fill="#2b2b3b" stroke="#2b2b3b"></path><path d="M443.7 715L676 729L677 524Z" fill="#0c1723" stroke="#0c1723"></path><path d="M676 729L628 876L871.3 863Z" fill="#06141f" stroke="#06141f"></path><path d="M1720.7 201L1479.3 167L1481.3 347Z" fill="#191f2d" stroke="#191f2d"></path><path d="M1481.3 347L1479.3 167L1308 185Z" fill="#222534" stroke="#222534"></path><path d="M1308 185L1105.7 0L1077.7 211Z" fill="#0c1723" stroke="#0c1723"></path><path d="M1478.3 861L1695.7 712L1455.3 757Z" fill="#06141f" stroke="#06141f"></path><path d="M1490.3 515L1687.7 381L1481.3 347Z" fill="#222534" stroke="#222534"></path><path d="M1709.7 881L1695.7 712L1478.3 861Z" fill="#272837" stroke="#272837"></path><path d="M1286 1080L1471.3 1080L1306 860Z" fill="#302e3e" stroke="#302e3e"></path><path d="M1737.7 500L1687.7 381L1490.3 515Z" fill="#272837" stroke="#272837"></path><path d="M1271 0L1105.7 0L1308 185Z" fill="#06141f" stroke="#06141f"></path><path d="M1695.7 712L1737.7 500L1490.3 515Z" fill="#101926" stroke="#101926"></path><path d="M1479.3 167L1271 0L1308 185Z" fill="#101926" stroke="#101926"></path><path d="M1677.7 1080L1709.7 881L1478.3 861Z" fill="#06141f" stroke="#06141f"></path><path d="M1695.7 712L1920 518L1737.7 500Z" fill="#06141f" stroke="#06141f"></path><path d="M628 0L640 182L813.3 205Z" fill="#151c2a" stroke="#151c2a"></path><path d="M813.3 205L640 182L671 363Z" fill="#191f2d" stroke="#191f2d"></path><path d="M421.7 555L443.7 715L677 524Z" fill="#272837" stroke="#272837"></path><path d="M628 876L648 1080L871.3 863Z" fill="#0c1723" stroke="#0c1723"></path><path d="M1105.7 0L869.3 0L1077.7 211Z" fill="#272837" stroke="#272837"></path><path d="M421.7 555L677 524L432.7 334Z" fill="#101926" stroke="#101926"></path><path d="M628 876L448.7 1080L648 1080Z" fill="#101926" stroke="#101926"></path><path d="M432.7 334L677 524L671 363Z" fill="#191f2d" stroke="#191f2d"></path><path d="M1471.3 1080L1677.7 1080L1478.3 861Z" fill="#0c1723" stroke="#0c1723"></path><path d="M1723.7 0L1497.3 0L1479.3 167Z" fill="#302e3e" stroke="#302e3e"></path><path d="M1479.3 167L1497.3 0L1271 0Z" fill="#00101c" stroke="#00101c"></path><path d="M1920 378L1720.7 201L1687.7 381Z" fill="#151c2a" stroke="#151c2a"></path><path d="M1687.7 381L1720.7 201L1481.3 347Z" fill="#06141f" stroke="#06141f"></path><path d="M235.3 688L424.7 863L443.7 715Z" fill="#151c2a" stroke="#151c2a"></path><path d="M443.7 715L424.7 863L628 876Z" fill="#101926" stroke="#101926"></path><path d="M640 182L432.7 334L671 363Z" fill="#0c1723" stroke="#0c1723"></path><path d="M453.7 192L432.7 334L640 182Z" fill="#101926" stroke="#101926"></path><path d="M869.3 0L628 0L813.3 205Z" fill="#0c1723" stroke="#0c1723"></path><path d="M1920 736L1920 518L1695.7 712Z" fill="#0c1723" stroke="#0c1723"></path><path d="M1737.7 500L1920 378L1687.7 381Z" fill="#101926" stroke="#101926"></path><path d="M1920 736L1695.7 712L1709.7 881Z" fill="#2b2b3b" stroke="#2b2b3b"></path><path d="M628 0L453.7 192L640 182Z" fill="#302e3e" stroke="#302e3e"></path><path d="M1920 882L1920 736L1709.7 881Z" fill="#06141f" stroke="#06141f"></path><path d="M424.7 863L448.7 1080L628 876Z" fill="#00101c" stroke="#00101c"></path><path d="M1920 518L1920 378L1737.7 500Z" fill="#1d2230" stroke="#1d2230"></path><path d="M1720.7 201L1723.7 0L1479.3 167Z" fill="#272837" stroke="#272837"></path><path d="M1920 1080L1920 882L1709.7 881Z" fill="#06141f" stroke="#06141f"></path><path d="M1920 170L1723.7 0L1720.7 201Z" fill="#1d2230" stroke="#1d2230"></path><path d="M225.3 378L421.7 555L432.7 334Z" fill="#2b2b3b" stroke="#2b2b3b"></path><path d="M225.3 378L251.3 573L421.7 555Z" fill="#302e3e" stroke="#302e3e"></path><path d="M421.7 555L235.3 688L443.7 715Z" fill="#272837" stroke="#272837"></path><path d="M424.7 863L219.3 889L448.7 1080Z" fill="#1d2230" stroke="#1d2230"></path><path d="M251.3 573L235.3 688L421.7 555Z" fill="#2b2b3b" stroke="#2b2b3b"></path><path d="M1920 378L1920 170L1720.7 201Z" fill="#0c1723" stroke="#0c1723"></path><path d="M1677.7 1080L1920 1080L1709.7 881Z" fill="#151c2a" stroke="#151c2a"></path><path d="M628 0L438.7 0L453.7 192Z" fill="#1d2230" stroke="#1d2230"></path><path d="M218.3 202L225.3 378L432.7 334Z" fill="#151c2a" stroke="#151c2a"></path><path d="M218.3 202L432.7 334L453.7 192Z" fill="#06141f" stroke="#06141f"></path><path d="M251.3 573L0 578L235.3 688Z" fill="#222534" stroke="#222534"></path><path d="M0 752L219.3 889L235.3 688Z" fill="#302e3e" stroke="#302e3e"></path><path d="M235.3 688L219.3 889L424.7 863Z" fill="#272837" stroke="#272837"></path><path d="M438.7 0L218.3 202L453.7 192Z" fill="#191f2d" stroke="#191f2d"></path><path d="M225.3 378L0 578L251.3 573Z" fill="#272837" stroke="#272837"></path><path d="M1920 170L1920 0L1723.7 0Z" fill="#302e3e" stroke="#302e3e"></path><path d="M219.3 889L221.3 1080L448.7 1080Z" fill="#272837" stroke="#272837"></path><path d="M438.7 0L192.3 0L218.3 202Z" fill="#0c1723" stroke="#0c1723"></path><path d="M0 368L0 578L225.3 378Z" fill="#302e3e" stroke="#302e3e"></path><path d="M219.3 889L0 907L221.3 1080Z" fill="#2b2b3b" stroke="#2b2b3b"></path><path d="M0 368L225.3 378L218.3 202Z" fill="#2b2b3b" stroke="#2b2b3b"></path><path d="M0 578L0 752L235.3 688Z" fill="#191f2d" stroke="#191f2d"></path><path d="M0 178L0 368L218.3 202Z" fill="#302e3e" stroke="#302e3e"></path><path d="M0 752L0 907L219.3 889Z" fill="#302e3e" stroke="#302e3e"></path><path d="M192.3 0L0 178L218.3 202Z" fill="#222534" stroke="#222534"></path><path d="M0 907L0 1080L221.3 1080Z" fill="#1d2230" stroke="#1d2230"></path><path d="M192.3 0L0 0L0 178Z" fill="#0c1723" stroke="#0c1723"></path></g></svg>
